<svg width="356" height="164" viewBox="0 0 356 164" fill="none" xmlns="http://www.w3.org/2000/svg">
<path fill-rule="evenodd" clip-rule="evenodd" d="M76.0651 138.376C74.9258 138.376 73.9575 137.977 73.16 137.18C72.3626 136.383 71.9638 135.415 71.9638 134.276V112.409H17.7936C16.6544 112.409 15.686 112.01 14.8886 111.213C14.0911 110.416 13.6924 109.448 13.6924 108.309V96.5215C13.6924 94.6992 14.319 92.9909 15.5721 91.3965L65.9829 21.6965C66.5525 20.7854 67.4069 20.0736 68.5462 19.5611C69.6854 19.0486 70.9385 18.7923 72.3056 18.7923H91.1029C92.356 18.7923 93.3528 19.1625 94.0933 19.9027C94.8338 20.643 95.2041 21.6395 95.2041 22.8923V92.0798H110.584C111.837 92.0798 112.834 92.45 113.574 93.1902C114.315 93.9305 114.685 94.927 114.685 96.1798V108.309C114.685 109.448 114.315 110.416 113.574 111.213C112.834 112.01 111.837 112.409 110.584 112.409H95.2041V134.276C95.2041 135.415 94.8338 136.383 94.0933 137.18C93.3528 137.977 92.356 138.376 91.1029 138.376H76.0651ZM37.7875 92.7627H72.4769V43.7335L37.7875 92.7627ZM176.374 140.084C161.108 140.084 149.744 135.87 142.282 127.442C134.82 119.015 130.748 107.967 130.064 94.3007C129.95 91.2256 129.893 85.9868 129.893 78.584C129.893 71.0673 129.95 65.7146 130.064 62.5257C130.634 49.0867 134.735 38.1535 142.368 29.7257C150.001 21.2978 161.336 17.084 176.374 17.084C191.412 17.084 202.747 21.2978 210.38 29.7257C218.012 38.1535 222.114 49.0867 222.683 62.5257C222.911 68.9035 223.025 74.2562 223.025 78.584C223.025 82.9118 222.911 88.1506 222.683 94.3007C222 107.967 217.927 119.015 210.465 127.442C203.003 135.87 191.639 140.084 176.374 140.084ZM176.374 120.096C183.437 120.096 188.735 117.79 192.266 113.178C195.798 108.565 197.678 101.988 197.906 93.4465C198.02 90.1437 198.076 85.0757 198.076 78.2423C198.076 71.4089 198.02 66.4548 197.906 63.3798C197.678 55.0659 195.798 48.5743 192.266 43.9048C188.735 39.2353 183.437 36.8437 176.374 36.7298C169.311 36.8437 164.014 39.2353 160.482 43.9048C156.95 48.5743 155.071 55.0659 154.843 63.3798C154.729 66.4548 154.672 71.4089 154.672 78.2423C154.672 85.0757 154.729 90.1437 154.843 93.4465C155.071 101.988 156.95 108.565 160.482 113.178C164.014 117.79 169.311 120.096 176.374 120.096ZM300.265 138.376C299.126 138.376 298.157 137.977 297.36 137.18C296.562 136.383 296.164 135.415 296.164 134.276V112.409H241.993C240.854 112.409 239.886 112.01 239.088 111.213C238.291 110.416 237.892 109.448 237.892 108.309V96.5215C237.892 94.6992 238.519 92.9909 239.772 91.3965L290.183 21.6965C290.752 20.7854 291.607 20.0736 292.746 19.5611C293.885 19.0486 295.138 18.7923 296.505 18.7923H315.303C316.556 18.7923 317.553 19.1625 318.293 19.9027C319.034 20.643 319.404 21.6395 319.404 22.8923V92.0798H334.783C336.037 92.0798 337.033 92.45 337.774 93.1902C338.514 93.9305 338.885 94.927 338.885 96.1798V108.309C338.885 109.448 338.514 110.416 337.774 111.213C337.033 112.01 336.037 112.409 334.783 112.409H319.404V134.276C319.404 135.415 319.034 136.383 318.293 137.18C317.553 137.977 316.556 138.376 315.303 138.376H300.265ZM261.987 92.7627H296.677V43.7335L261.987 92.7627Z" fill="#C8C8C8"/>
</svg>
