<svg width="30" height="48" xmlns="http://www.w3.org/2000/svg"><path d="M3 34c0-1.523.332-2.371 1-3 .659-.674 1.49-1 2-1 1.503 0 2.341.326 3 1 .668.629 1 1.477 1 3 0 .553-.328 1.39-1 2-.641.678-1.483 1-3 1-.524 0-1.359-.322-2-1-.672-.61-1-1.447-1-2zm0-17c0-1.523.332-2.371 1-3 .659-.674 1.49-1 2-1 1.503 0 2.341.326 3 1 .668.629 1 1.477 1 3 0 .553-.328 1.39-1 2-.641.678-1.483 1-3 1-.524 0-1.359-.322-2-1-.672-.61-1-1.447-1-2zm12 7c0-3.488.44-6.576 1-10 1.198-2.44 2.495-5.035 4-7 1.926-2.553 3.786-4.122 6-5l1 3c-2.105 1.844-3.748 4.21-5 7-1.112 3.611-1.703 7.35-2 12 .297 4.578.881 8.332 2 12 1.216 2.762 2.867 5.163 5 7l-1 3c-2.171-.864-3.998-2.39-6-5-1.386-1.767-2.68-4.291-4-7-.467-3.014-.942-6.002-1-9v-1z" fill="#4A4A4A" fill-rule="evenodd" opacity=".3"/></svg>