<svg width="20" height="20" xmlns="http://www.w3.org/2000/svg"><path d="M18.665 11.637a2.206 2.206 0 0 1-1.831 1.098.688.688 0 0 1-.09.006h-.002l-2.296.002-1.886.002c.283.847.437 1.756.437 2.705 0 .615-.064 1.213-.187 1.79l-.011-.002c-.225 1.01-1.09 1.762-2.125 1.762a2.09 2.09 0 0 1-.697-.119c-.863-.303-1.484-1.154-1.484-2.157l.002-.082c.002-.044.004-.088.008-.13-.068-2.412-1.881-4.367-4.168-4.538v-.015l-2.488-.006a.717.717 0 0 1-.092.006c-.413 0-.75-.351-.75-.782v-.806l-.001-3.167L1 1.784C1 1.351 1.336 1 1.75 1c.04 0 .08.004.119.011l2.768-.001a.717.717 0 0 1 .224 0L15.1 1.007c.46-.037.937.074 1.355.354.357.236.627.562.8.932a.77.77 0 0 1 .095.226l.007.039c.053.16.09.327.108.496L18.474 7.7l.442 2.042.054.241a.84.84 0 0 1 .023.251c.035.474-.07.967-.328 1.404zm-14.66-1.244l-.002-3.175-.004-4.643H2.501l.003 4.635.002 3.179 1.499.004zm12.931-2.698l-.523-2.41-.444-2.049-.048-.216a.72.72 0 0 0-.276-.35.668.668 0 0 0-.283-.107.801.801 0 0 1-.095.008h-2.099l-7.67.004.004 4.65.003 3.361c1.615.428 2.966 1.543 3.754 3.029.18.34.33.696.447 1.07.001 0 .001-.002.003-.002.065.2.134.45.184.72.118.633.105 1.245.105 1.245h.009c-.002.017-.002.032-.002.05 0 .404.314.732.702.732.387 0 .701-.328.701-.732l-.002-.035h.006s.112-.586.114-1.229a8.27 8.27 0 0 0-.039-.824 3.418 3.418 0 0 0-.06-.408h-.01a6.797 6.797 0 0 0-.64-1.885l.007-.007a.806.806 0 0 1-.08-.347c0-.432.337-.783.75-.783h.648l2.342-.002 2.3-.001h.001v-.002a.714.714 0 0 0 .654-.357.784.784 0 0 0 .074-.629l.005-.002-.542-2.492z" fill="#123C6A" opacity=".7"/></svg>