<svg width="20" height="20" xmlns="http://www.w3.org/2000/svg"><path d="M18.665 8.363a2.206 2.206 0 0 0-1.831-1.098.688.688 0 0 0-.09-.006h-.002l-2.296-.002-1.886-.002a8.525 8.525 0 0 0 .437-2.705c0-.615-.064-1.213-.187-1.79l-.011.002C12.574 1.752 11.709 1 10.674 1a2.09 2.09 0 0 0-.697.119c-.863.303-1.484 1.154-1.484 2.157l.002.082c.002.044.004.088.008.13C8.435 5.9 6.622 7.855 4.335 8.026v.015l-2.488.006a.717.717 0 0 0-.092-.006c-.413 0-.75.351-.75.782v.806l-.001 3.167L1 18.216c0 .432.336.783.75.783.04 0 .08-.004.119-.011l2.768.001a.717.717 0 0 0 .224 0l10.239.004c.46.037.937-.074 1.355-.354.357-.236.627-.562.8-.932a.77.77 0 0 0 .095-.226l.007-.039c.053-.16.09-.327.108-.496l1.009-4.645.442-2.042.054-.241a.84.84 0 0 0 .023-.251 2.406 2.406 0 0 0-.328-1.404zM4.005 9.607l-.002 3.175-.004 4.643H2.501l.003-4.635.002-3.179 1.499-.004zm12.931 2.698l-.523 2.41-.444 2.049-.048.216a.72.72 0 0 1-.276.35.668.668 0 0 1-.283.107.801.801 0 0 0-.095-.008h-2.099l-7.67-.004.004-4.65.003-3.361C7.12 8.986 8.471 7.87 9.26 6.385c.18-.34.33-.696.447-1.07.001 0 .001.002.003.002.065-.2.134-.45.184-.72.118-.633.105-1.245.105-1.245h.009c-.002-.017-.002-.032-.002-.05 0-.404.314-.732.702-.732.387 0 .701.328.701.732l-.002.035h.006a7.519 7.519 0 0 0 .075 2.053c-.027.27-.06.408-.06.408h-.01a6.797 6.797 0 0 1-.64 1.885l.007.007a.806.806 0 0 0-.08.347c0 .432.337.783.75.783h.648l2.342.002 2.3.001h.001v.002a.714.714 0 0 1 .654.357.784.784 0 0 1 .074.629l.005.002-.542 2.492z" fill="#123C6A" opacity=".7"/></svg>