<svg width="25" height="24" viewBox="0 0 25 24" fill="none" xmlns="http://www.w3.org/2000/svg">
<rect width="25" height="23" fill="#DD5252" fill-opacity="0.01"/>
<rect x="2" y="2" width="21" height="19" fill="#D8D8D8" fill-opacity="0.01"/>
<path d="M3 3H6L9 16H20" stroke="#123C6A" stroke-width="2" stroke-linecap="round"/>
<path d="M6 6H22L20.4516 12.4L8.06452 14" stroke="#123C6A" stroke-width="2"/>
<path d="M9.5 21C10.3284 21 11 20.3284 11 19.5C11 18.6716 10.3284 18 9.5 18C8.67157 18 8 18.6716 8 19.5C8 20.3284 8.67157 21 9.5 21Z" fill="#123C6A"/>
<path d="M18.5 21C19.3284 21 20 20.3284 20 19.5C20 18.6716 19.3284 18 18.5 18C17.6716 18 17 18.6716 17 19.5C17 20.3284 17.6716 21 18.5 21Z" fill="#123C6A"/>
</svg>
