<svg xmlns="http://www.w3.org/2000/svg" width="100" height="40"><path fill="#C8C8C8" fill-rule="evenodd" d="M21.221 37.5c-.333 0-.615-.117-.848-.35a1.158 1.158 0 0 1-.35-.85v-6.4H4.198c-.333 0-.616-.117-.849-.35A1.158 1.158 0 0 1 3 28.7v-3.45c0-.533.183-1.033.55-1.5l14.726-20.4c.166-.267.416-.475.749-.625.333-.15.699-.225 1.098-.225h5.491c.366 0 .658.108.874.325.216.217.324.508.324.875v20.25h4.493c.366 0 .658.108.874.325.216.217.324.508.324.875v3.55c0 .333-.108.617-.324.85-.216.233-.508.35-.874.35h-4.493v6.4c0 .333-.108.617-.324.85-.216.233-.508.35-.874.35h-4.393zM10.04 24.15h10.134V9.8L10.039 24.15zM50.525 38c-4.46 0-7.78-1.233-9.96-3.7-2.18-2.467-3.369-5.7-3.569-9.7-.033-.9-.05-2.433-.05-4.6 0-2.2.017-3.767.05-4.7.167-3.933 1.365-7.133 3.595-9.6C42.82 3.233 46.13 2 50.525 2c4.393 0 7.704 1.233 9.934 3.7 2.23 2.467 3.428 5.667 3.595 9.6.066 1.867.1 3.433.1 4.7 0 1.267-.034 2.8-.1 4.6-.2 4-1.39 7.233-3.57 9.7-2.18 2.467-5.5 3.7-9.959 3.7zm0-5.85c2.063 0 3.61-.675 4.643-2.025 1.031-1.35 1.58-3.275 1.647-5.775.033-.967.05-2.45.05-4.45s-.017-3.45-.05-4.35c-.067-2.433-.616-4.333-1.647-5.7-1.032-1.367-2.58-2.067-4.643-2.1-2.063.033-3.611.733-4.643 2.1-1.031 1.367-1.58 3.267-1.647 5.7-.033.9-.05 2.35-.05 4.35 0 2 .017 3.483.05 4.45.066 2.5.616 4.425 1.647 5.775 1.032 1.35 2.58 2.025 4.643 2.025zm36.193 5.35c-.333 0-.616-.117-.849-.35a1.158 1.158 0 0 1-.35-.85v-6.4H69.696c-.333 0-.616-.117-.849-.35a1.158 1.158 0 0 1-.35-.85v-3.45c0-.533.184-1.033.55-1.5l14.726-20.4c.167-.267.416-.475.75-.625.332-.15.698-.225 1.098-.225h5.49c.367 0 .658.108.874.325.217.217.325.508.325.875v20.25h4.493c.366 0 .657.108.874.325.216.217.324.508.324.875v3.55c0 .333-.108.617-.324.85-.217.233-.508.35-.874.35H92.31v6.4c0 .333-.108.617-.325.85-.216.233-.507.35-.873.35h-4.393zM75.535 24.15H85.67V9.8L75.535 24.15z"/></svg>