<svg width="30" height="288" xmlns="http://www.w3.org/2000/svg"><g fill="none" fill-rule="evenodd"><path d="M0 0h30v30H0z"/><g transform="translate(6 5)"><rect stroke="#9EAAB2" stroke-width="2" x="1" y="9" width="8" height="11" rx="1"/><path stroke="#9EAAB2" stroke-width="2" d="M1 12h5v5H1z"/><rect stroke="#9EAAB2" stroke-width="2" fill="#FFF" fill-rule="nonzero" x="4" y="7" width="2" height="2" rx="1"/><path stroke="#9EAAB2" stroke-width="2" d="M11 3h4v3h-4z"/><rect stroke="#9EAAB2" stroke-width="2" x="9" y="6" width="8" height="14" rx="1"/><path fill="#9EAAB2" fill-rule="nonzero" d="M12 1h2v2h-2z"/><path stroke="#9EAAB2" stroke-width="2" stroke-linecap="round" d="M16.5 0H10L8 1"/></g><path d="M0 60h30v30H0z"/><g fill="#9EAAB2"><path d="M9.8 82.8l-2.5 2.5c-.4.4-.4 1 0 1.4.4.4 1 .4 1.4 0l2.5-2.5c.4-.4.4-1 0-1.4-.4-.4-1-.4-1.4 0zm9 1.4l2.5 2.5c.4.4 1 .4 1.4 0 .4-.4.4-1 0-1.4l-2.5-2.5c-.4-.4-1-.4-1.4 0-.4.4-.4 1 0 1.4z"/><path d="M20.6 77.2c-.1.3-.4.8-.5 1.1-2-1.7-8.3-1.3-10 0-.4-1-1.1-2.1-1.5-3.1-.3-.8-1.1-1.2-1.9-1-.8.1-1.3.9-1.3 1.7 0 .7.4 1.3 1.1 1.5.3.1.4.2.5.5.4 1.1.9 2.1 1.2 3.2.2.6 1.3.9 1.6.9h10.5c.3 0 1.3-.3 1.6-.9.4-1.1.8-2.1 1.2-3.2.1-.3.3-.5.6-.5.6-.2 1.1-.8 1.1-1.5 0-.8-.5-1.5-1.3-1.7-.8-.2-1.5.2-1.9.9l-1 2.1zm6.1-1.2c0 1.5-1.9 2.9-1.9 3.1-.1.3-.2.6-.4 1-.3.9-.5 1.3-.7 1.8-.5 1.5-2.2 2.2-3.4 2.2H9.8c-1.3 0-3-.7-3.5-2.2-.2-.5-.3-.9-.7-1.7-.3-.7-.2-.9-.4-1-1.2-.6-1.9-1.8-1.9-3.2 0-1.8 1.2-3.3 2.9-3.6 1.8-.3 3.4.6 4.1 2.2.1.4.6 1.6.4 1.2 3.1-1.1 7.6-.5 8.2-.2-.1.2.6-.9.7-1.2.7-1.6 2.5-2.5 4.2-2 1.8.3 2.9 1.8 2.9 3.6z"/><path d="M8 74v-7.5c0-.2.4-.5.9-.5h12.2c.5 0 .9.3.9.5V74h2v-7.5c0-1.4-1.3-2.5-2.9-2.5H8.9C7.3 64 6 65.1 6 66.5V74h2z"/></g><path d="M0 30h30v30H0z"/><g fill="#9EAAB2"><path d="M8 43c0 2 1.1 4.1 2.4 5.2 1.2 1 2.6 1.6 4.2 1.8 2.3.3 4.5-.1 6.4-1.3 1.5-1 3-2.6 3-5.6H8V43zm-2 0c0-1.1.9-2 2-2h16c1.1 0 2 .9 2 2 0 3.3-1.5 5.7-3.9 7.3-2.3 1.5-4.9 2-7.8 1.6-2-.3-3.7-1-5.2-2.2C7.3 48.2 6 45.5 6 43z"/><path d="M11.2 49.5c2.1 0 3.8 1.7 3.8 3.7 0 2.1-1.8 3.7-3.8 3.7-2.1 0-3.8-1.7-3.8-3.7s1.7-3.7 3.8-3.7zm0 2c-1 0-1.8.8-1.8 1.7 0 1 .8 1.7 1.8 1.7s1.8-.8 1.8-1.7c0-.9-.8-1.7-1.8-1.7zm10.1-2c2.1 0 3.8 1.7 3.8 3.7 0 2.1-1.8 3.7-3.8 3.7-2.1 0-3.8-1.7-3.8-3.8-.1-2 1.7-3.6 3.8-3.6zm0 2c-1 0-1.8.8-1.8 1.7 0 1 .8 1.7 1.8 1.7s1.8-.8 1.8-1.7c0-.9-.8-1.7-1.8-1.7zM13 43h11c.6 0 1-.5 1-1-.1-4.2-3.2-7.5-7.8-8.7-.5-.1-1 .1-1.2.6-.5 1.1-.9 1.9-1.9 3.7v.1c-1 1.9-1.5 2.8-2 4-.3.6.2 1.3.9 1.3zm4.5-7.5c3.3 1.1 5.8 5.5 5.5 5.5h-8.5l3-5.5zm-9.3 5.9l-3-2.9c-.4-.4-1-.4-1.4 0-.4.4-.4 1 0 1.4l3 2.9c.4.4 1 .4 1.4 0 .4-.4.4-1.1 0-1.4z"/></g><path d="M0 90h30v30H0z"/><g transform="translate(2 96)"><path d="M13 2h-1.1c-.8.1-1.5.2-2.2.4C9.6 2.3 8.1 0 6.5 0S2.8 9 3.3 12v.1C3.7 16.6 9 19 13 19c4.5 0 9.7-2.8 9.7-7.5v-.3C22.8 7.8 20.9 0 19.4 0c-1.5 0-3 2.2-3.2 2.5-1-.3-2.1-.5-3.2-.5z" stroke="#9EAAB2" stroke-width="2" stroke-linecap="round" stroke-linejoin="round"/><circle fill="#9EAAB2" cx="8.5" cy="7.5" r="1.5"/><circle fill="#9EAAB2" cx="17.5" cy="7.5" r="1.5"/><path d="M11.4 10.6c-.2-.6.2-1 .8-1h1.7c.6 0 .9.4.8 1v.1c-.2.6-.8 1-1.4 1h-.4c-.7 0-1.3-.5-1.5-1.1.1.1 0 0 0 0z" fill="#9EAAB2"/><path d="M.7 15.4L7 13.2m18.3 2.2L19 13.2m.1-2h6.4M0 11.2h6.4" stroke="#9EAAB2" stroke-linecap="round"/><path d="M12.9 11.6c0 1.2.9 2.1 2.1 2.1 1.2 0 2.1-.9 2.1-2.1m-8.4 0c0 1.2.9 2.1 2.1 2.1 1.2 0 2.1-.9 2.1-2.1" stroke="#9EAAB2" stroke-linecap="round" stroke-linejoin="round"/></g><path d="M0 120h30v30H0z"/><g transform="translate(4 124)"><path d="M2.9 14.8c0-.2 0-.3-.1-.4-.5-.5-1.1-1-1.6-1.5-.3-.2-.3-.3-.1-.6.4-.6.8-1.3 1.2-1.9.1-.1.1-.2 0-.4-.2-.7-.4-1.4-.7-2.1-.1-.3 0-.4.2-.5.6-.4 1.3-.8 2-1.1.1-.2.2-.2.2-.4.1-.8.2-1.5.4-2.3 0-.3.1-.3.4-.3.8 0 1.5-.1 2.2-.1.2 0 .3-.1.3-.2.4-.6.9-1.2 1.3-1.8.3-.3.4-.3.7-.1.7.3 1.4.6 2 1 .1.1.2.1.4 0 .7-.3 1.4-.7 2-1 .3-.2.3-.2.5.1.5.6.9 1.2 1.4 1.8.1.1.2.2.3.2.7 0 1.5 0 2.2.1.4 0 .4.1.5.4.1.8.2 1.5.4 2.3 0 .1.1.2.2.2.6.4 1.3.8 1.9 1.1.3.2.3.2.2.6-.2.7-.5 1.4-.7 2.1-.1.2 0 .3.1.5.4.6.8 1.2 1.2 1.9.2.3.2.4-.1.6-.5.5-1.1 1-1.6 1.5-.2 0-.2.1-.2.3.1.7.1 1.5.2 2.2 0 .4 0 .4-.4.5l-2.1.6c-.2 0-.2.1-.3.3-.3.7-.6 1.4-.9 2-.1.3-.2.4-.5.3-.7-.1-1.5-.3-2.2-.5-.1 0-.2 0-.3.1l-1.8 1.5c-.2.2-.3.2-.6 0l-1.8-1.5c-.1-.1-.2-.1-.3-.1-.7.2-1.5.3-2.2.5-.3.1-.4 0-.5-.3l-.9-2.1c-.1-.1-.1-.2-.3-.3L3 17.4c-.3-.1-.4-.1-.3-.6.1-.5.1-1.3.2-2zm5 .4l7.3-7.3-7.3 7.3z" stroke="#9EAAB2" stroke-width="2" stroke-linecap="round" stroke-linejoin="round"/><circle fill="#9EAAB2" cx="9.7" cy="7.9" r="1.4"/><circle fill="#9EAAB2" cx="13.4" cy="15.2" r="1.4"/></g><path stroke-width="2" d="M9 163l6 5 6-5m-11 39l10 10m0-10l-10 10" stroke="#9EAAB2" stroke-linecap="round"/><path d="M9.5 226c-3.04 0-5.5 2.504-5.5 5.6 0 4.2 5.5 10.4 5.5 10.4s5.5-6.2 5.5-10.4c0-3.096-2.46-5.6-5.5-5.6zm0 9c-1.843 0-3.34-1.523-3.34-3.4s1.497-3.4 3.34-3.4c1.843 0 3.34 1.523 3.34 3.4S11.342 235 9.5 235z" fill-rule="nonzero" fill="#4A4A4A"/><path d="M0 246h25v23H0z"/><g transform="translate(2 248)"><path d="M0 0h21v19H0z"/><path stroke="#FFF" stroke-width="2" stroke-linecap="round" d="M1 1h3l3 13h11"/><path stroke="#FFF" stroke-width="2" d="M4 4h16l-1.548 6.4L6.065 12"/><circle fill="#FFF" fill-rule="nonzero" cx="7.5" cy="17.5" r="1.5"/><circle fill="#FFF" fill-rule="nonzero" cx="16.5" cy="17.5" r="1.5"/></g><g transform="translate(2 271)" fill-rule="nonzero" fill="#FFF"><rect y="12" width="26" height="3" rx="1"/><rect y="6" width="26" height="3" rx="1"/><rect width="26" height="3" rx="1"/></g><path d="M4 184l5.5 4 5.5-4" stroke="#FFF" stroke-linecap="round" stroke-width="2"/></g></svg>