<svg width="639" height="6" viewBox="0 0 639 6" fill="none" xmlns="http://www.w3.org/2000/svg">
<g clip-path="url(#clip0)">
<path d="M0 0L4 6L8 0H0Z" fill="white"/>
<path d="M8 0L12 6L16 0H8Z" fill="white"/>
<path d="M16 0L20 6L24 0H16Z" fill="white"/>
<path d="M24 0L28 6L32 0H24Z" fill="white"/>
<path d="M32 0L36 6L40 0H32Z" fill="white"/>
<path d="M40 0L44 6L48 0H40Z" fill="white"/>
<path d="M48 0L52 6L56 0H48Z" fill="white"/>
<path d="M56 0L60 6L64 0H56Z" fill="white"/>
<path d="M64 0L68 6L72 0H64Z" fill="white"/>
<path d="M72 0L76 6L80 0H72Z" fill="white"/>
<path d="M80 0L84 6L88 0H80Z" fill="white"/>
<path d="M88 0L92 6L96 0H88Z" fill="white"/>
<path d="M96 0L100 6L104 0H96Z" fill="white"/>
<path d="M104 0L108 6L112 0H104Z" fill="white"/>
<path d="M112 0L116 6L120 0H112Z" fill="white"/>
<path d="M120 0L124 6L128 0H120Z" fill="white"/>
<path d="M128 0L132 6L136 0H128Z" fill="white"/>
<path d="M136 0L140 6L144 0H136Z" fill="white"/>
<path d="M144 0L148 6L152 0H144Z" fill="white"/>
<path d="M152 0L156 6L160 0H152Z" fill="white"/>
<path d="M160 0L164 6L168 0H160Z" fill="white"/>
<path d="M168 0L172 6L176 0H168Z" fill="white"/>
<path d="M176 0L180 6L184 0H176Z" fill="white"/>
<path d="M184 0L188 6L192 0H184Z" fill="white"/>
<path d="M192 0L196 6L200 0H192Z" fill="white"/>
<path d="M200 0L204 6L208 0H200Z" fill="white"/>
<path d="M208 0L212 6L216 0H208Z" fill="white"/>
<path d="M216 0L220 6L224 0H216Z" fill="white"/>
<path d="M224 0L228 6L232 0H224Z" fill="white"/>
<path d="M232 0L236 6L240 0H232Z" fill="white"/>
<path d="M240 0L244 6L248 0H240Z" fill="white"/>
<path d="M248 0L252 6L256 0H248Z" fill="white"/>
<path d="M256 0L260 6L264 0H256Z" fill="white"/>
<path d="M264 0L268 6L272 0H264Z" fill="white"/>
<path d="M272 0L276 6L280 0H272Z" fill="white"/>
<path d="M280 0L284 6L288 0H280Z" fill="white"/>
<path d="M288 0L292 6L296 0H288Z" fill="white"/>
<path d="M296 0L300 6L304 0H296Z" fill="white"/>
<path d="M304 0L308 6L312 0H304Z" fill="white"/>
<path d="M312 0L316 6L320 0H312Z" fill="white"/>
<path d="M320 0L324 6L328 0H320Z" fill="white"/>
<path d="M328 0L332 6L336 0H328Z" fill="white"/>
<path d="M336 0L340 6L344 0H336Z" fill="white"/>
<path d="M344 0L348 6L352 0H344Z" fill="white"/>
<path d="M352 0L356 6L360 0H352Z" fill="white"/>
<path d="M360 0L364 6L368 0H360Z" fill="white"/>
<path d="M368 0L372 6L376 0H368Z" fill="white"/>
<path d="M376 0L380 6L384 0H376Z" fill="white"/>
<path d="M384 0L388 6L392 0H384Z" fill="white"/>
<path d="M392 0L396 6L400 0H392Z" fill="white"/>
<path d="M400 0L404 6L408 0H400Z" fill="white"/>
<path d="M408 0L412 6L416 0H408Z" fill="white"/>
<path d="M416 0L420 6L424 0H416Z" fill="white"/>
<path d="M424 0L428 6L432 0H424Z" fill="white"/>
<path d="M432 0L436 6L440 0H432Z" fill="white"/>
<path d="M440 0L444 6L448 0H440Z" fill="white"/>
<path d="M448 0L452 6L456 0H448Z" fill="white"/>
<path d="M456 0L460 6L464 0H456Z" fill="white"/>
<path d="M464 0L468 6L472 0H464Z" fill="white"/>
<path d="M472 0L476 6L480 0H472Z" fill="white"/>
<path d="M480 0L484 6L488 0H480Z" fill="white"/>
<path d="M488 0L492 6L496 0H488Z" fill="white"/>
<path d="M496 0L500 6L504 0H496Z" fill="white"/>
<path d="M504 0L508 6L512 0H504Z" fill="white"/>
<path d="M512 0L516 6L520 0H512Z" fill="white"/>
<path d="M520 0L524 6L528 0H520Z" fill="white"/>
<path d="M528 0L532 6L536 0H528Z" fill="white"/>
<path d="M536 0L540 6L544 0H536Z" fill="white"/>
<path d="M544 0L548 6L552 0H544Z" fill="white"/>
<path d="M552 0L556 6L560 0H552Z" fill="white"/>
<path d="M560 0L564 6L568 0H560Z" fill="white"/>
<path d="M568 0L572 6L576 0H568Z" fill="white"/>
<path d="M576 0L580 6L584 0H576Z" fill="white"/>
<path d="M584 0L588 6L592 0H584Z" fill="white"/>
<path d="M592 0L596 6L600 0H592Z" fill="white"/>
<path d="M600 0L604 6L608 0H600Z" fill="white"/>
<path d="M608 0L612 6L616 0H608Z" fill="white"/>
<path d="M616 0L620 6L624 0H616Z" fill="white"/>
<path d="M624 0L628 6L632 0H624Z" fill="white"/>
<path d="M632 0L636 6L640 0H632Z" fill="white"/>
</g>
<defs>
<clipPath id="clip0">
<rect width="639" height="6" fill="white"/>
</clipPath>
</defs>
</svg>
