<svg width="78" height="40" xmlns="http://www.w3.org/2000/svg"><g fill="none"><path d="M19.042 13.638c-1.067.725-1.625.325-1.247-.898l1.218-3.937-3.358-2.491c-1.035-.768-.82-1.411.477-1.438l4.212-.083 1.38-3.886c.43-1.206 1.122-1.207 1.551 0l1.38 3.886 4.214.085c1.297.025 1.51.67.476 1.437l-3.357 2.49 1.217 3.938c.376 1.222-.183 1.623-1.247.898L22.5 11.283l-3.458 2.355z" fill="#CFCFCF"/><path d="M4.042 13.638c-1.067.725-1.625.325-1.247-.898l1.218-3.937L.655 6.312c-1.035-.768-.82-1.411.477-1.438l4.212-.083L6.724.905c.43-1.206 1.122-1.207 1.551 0l1.38 3.886 4.214.085c1.297.025 1.51.67.476 1.437l-3.357 2.49 1.217 3.938c.376 1.222-.183 1.623-1.247.898L7.5 11.283l-3.458 2.355z" fill="#F7C642"/><path d="M6.416 38.519L13 33.716l.59.43 5.993 4.376c1.05.766 1.008.798.61-.583L17.9 29.983l.524-.416 5.82-4.626c1.072-.852 1.07-.859-.226-.886l-8.008-.173-.222-.67-2.392-7.217c-.44-1.327-.35-1.327-.79 0l-2.614 7.888-.706.015-7.302.154c-1.296.028-1.298.035-.226.887l6.345 5.043-.186.644-2.11 7.31c-.4 1.385-.443 1.351.61.583z" stroke="#F7C642" stroke-width="2" fill="#FFF"/><path d="M32.416 38.519L39 33.716l.59.43 5.993 4.376c1.05.766 1.008.798.61-.583L43.9 29.983l.524-.416 5.82-4.626c1.072-.852 1.07-.859-.226-.886l-8.008-.173-.222-.67-2.392-7.217c-.44-1.327-.35-1.327-.79 0l-2.614 7.888-.706.015-7.302.154c-1.296.028-1.298.035-.226.887l6.345 5.043-.186.644-2.11 7.31c-.4 1.385-.443 1.351.61.583z" stroke="#F7C642" stroke-width="2" fill="#F7C642"/><path d="M58.416 38.519L65 33.716l.59.43 5.993 4.376c1.05.766 1.008.798.61-.583L69.9 29.983l.524-.416 5.82-4.626c1.072-.852 1.07-.859-.226-.886l-8.008-.173-.222-.67-2.392-7.217c-.44-1.327-.35-1.327-.79 0l-2.614 7.888-.706.015-7.302.154c-1.296.028-1.298.035-.226.887l6.345 5.043-.186.644-2.11 7.31c-.4 1.385-.443 1.351.61.583z" stroke="#CFCFCF" stroke-width="2" fill="#CFCFCF"/></g></svg>